<svg width="20" height="23" viewBox="0 0 20 23" fill="none" xmlns="http://www.w3.org/2000/svg">
<g id="Group 3">
<path id="Vector" d="M19.9684 6.27597C19.2785 6.27598 18.5953 6.1401 17.9579 5.87609C17.3206 5.61208 16.7414 5.22511 16.2536 4.73728C15.7657 4.24944 15.3787 3.6703 15.1147 3.03291C14.8507 2.39552 14.7148 1.71237 14.7148 1.02246H10.9615V15.7199C10.9608 16.3899 10.7492 17.0428 10.3567 17.5859C9.96421 18.129 9.41074 18.5348 8.77474 18.7458C8.13874 18.9568 7.45246 18.9623 6.81318 18.7614C6.1739 18.5606 5.61404 18.1637 5.21296 17.6269C4.81187 17.0901 4.58991 16.4407 4.57852 15.7707C4.56714 15.1007 4.76691 14.4441 5.14952 13.894C5.53214 13.3439 6.07818 12.9282 6.71027 12.7057C7.34236 12.4833 8.02842 12.4654 8.67123 12.6547V9.00618C7.30515 8.82197 5.91539 9.05891 4.68751 9.68535C3.45964 10.3118 2.4521 11.2979 1.79943 12.5121C1.14677 13.7262 0.880035 15.1106 1.03486 16.4803C1.18968 17.85 1.75869 19.1399 2.6659 20.1777C3.57311 21.2155 4.77535 21.9519 6.11207 22.2884C7.44879 22.625 8.85638 22.5457 10.1469 22.0613C11.4374 21.5768 12.5493 20.7101 13.3343 19.577C14.1193 18.4439 14.5399 17.0983 14.54 15.7199L14.6489 8.29072C16.191 9.42284 18.0549 10.032 19.968 10.0292L19.9684 6.27597Z" fill="url(#paint0_linear_623_5)"/>
<path id="Vector_2" d="M18.9762 5.25358C17.5829 5.25354 16.2467 4.70002 15.2615 3.71479C14.2763 2.72955 13.7228 1.3933 13.7229 0H9.96951V14.6974C9.96881 15.3675 9.75723 16.0203 9.36475 16.5635C8.97227 17.1066 8.41881 17.5124 7.78281 17.7234C7.14681 17.9344 6.46053 17.9399 5.82124 17.7391C5.18195 17.5382 4.62209 17.1413 4.221 16.6045C3.8199 16.0677 3.59793 15.4183 3.58654 14.7483C3.57515 14.0783 3.77492 13.4217 4.15753 12.8716C4.54014 12.3215 5.08619 11.9058 5.71828 11.6833C6.35037 11.4609 7.03644 11.443 7.67925 11.6323V7.98371C6.31317 7.79951 4.9234 8.03644 3.69553 8.66289C2.46765 9.28933 1.46011 10.2755 0.807446 11.4896C0.154777 12.7037 -0.111954 14.0881 0.0428692 15.4578C0.197692 16.8275 0.766701 18.1174 1.67391 19.1552C2.58113 20.193 3.78336 20.9294 5.12009 21.266C6.45681 21.6025 7.8644 21.5233 9.1549 21.0388C10.4454 20.5543 11.5574 19.6876 12.3424 18.5545C13.1273 17.4214 13.5479 16.0758 13.548 14.6974L13.6575 7.26833C15.1997 8.40042 17.0635 9.00955 18.9766 9.0067L18.9762 5.25358Z" fill="url(#paint1_linear_623_5)"/>
<path id="Vector_3" d="M18.9762 6.18203C17.6776 5.93215 16.521 5.2017 15.7372 4.1365C14.7467 3.36126 14.0672 2.25627 13.8225 1.02246H10.9617V15.7199C10.9617 16.4174 10.7334 17.0958 10.3117 17.6514C9.88995 18.207 9.29802 18.6094 8.62622 18.7971C7.95441 18.9848 7.23963 18.9476 6.59099 18.691C5.94235 18.4344 5.39548 17.9727 5.03385 17.3762C4.39077 16.9576 3.91977 16.3216 3.70692 15.5844C3.49406 14.8472 3.55356 14.0581 3.87455 13.3611C4.19553 12.6642 4.75657 12.106 5.45513 11.7886C6.1537 11.4711 6.94317 11.4157 7.67926 11.6323V8.94737C6.41668 8.96363 5.18377 9.33249 4.11971 10.0123C3.05565 10.6921 2.2028 11.6559 1.65743 12.7947C1.11205 13.9335 0.895864 15.2021 1.03327 16.4573C1.17068 17.7125 1.6562 18.9043 2.43505 19.8982C3.42382 20.7232 4.62729 21.2493 5.9044 21.4148C7.1815 21.5802 8.47931 21.3782 9.64568 20.8323C10.812 20.2865 11.7986 19.4194 12.4898 18.3328C13.181 17.2463 13.5481 15.9852 13.548 14.6974L13.6575 7.26832C15.1997 8.40041 17.0635 9.00954 18.9766 9.00669L18.9762 6.18203Z" fill="url(#paint2_linear_623_5)"/>
</g>
<defs>
<linearGradient id="paint0_linear_623_5" x1="2.49623" y1="20.0287" x2="18.1087" y2="4.41623" gradientUnits="userSpaceOnUse">
<stop stop-color="#B5053C"/>
<stop offset="0.233" stop-color="#C90441"/>
<stop offset="0.737" stop-color="#F0014B"/>
<stop offset="1" stop-color="#FF004F"/>
</linearGradient>
<linearGradient id="paint1_linear_623_5" x1="1.27164" y1="19.2386" x2="17.7173" y2="2.79299" gradientUnits="userSpaceOnUse">
<stop stop-color="#00B2C9"/>
<stop offset="0.283" stop-color="#00C8D4"/>
<stop offset="0.741" stop-color="#00E6E4"/>
<stop offset="1" stop-color="#00F1EA"/>
</linearGradient>
<linearGradient id="paint2_linear_623_5" x1="-7.94202" y1="29.4597" x2="28.4606" y2="-6.94295" gradientUnits="userSpaceOnUse">
<stop stop-color="#DDE3E4"/>
<stop offset="1" stop-color="#FCF7F7"/>
</linearGradient>
</defs>
</svg>
